<svg width="40" height="40" viewBox="0 0 40 40" fill="none" xmlns="http://www.w3.org/2000/svg">
	<circle cx="20" cy="20" r="20" fill="#5690E8" />
	<path d="M13.8 29V11.2H20.4C21.7867 11.2 22.9733 11.44 23.96 11.92C24.9467 12.4 25.6933 13.0667 26.2 13.92C26.7067 14.7733 26.96 15.76 26.96 16.88C26.96 17.84 26.7733 18.6933 26.4 19.44C26.0267 20.1867 25.52 20.8 24.88 21.28C24.24 21.76 23.52 22.08 22.72 22.24L26.8 29H22.16L18.72 22.72H18.4V29H13.8ZM18.4 18.96H19.92C20.56 18.96 21.0667 18.8 21.44 18.48C21.8133 18.16 22 17.68 22 17.04C22 16.4 21.8133 15.92 21.44 15.6C21.0667 15.28 20.56 15.12 19.92 15.12H18.4V18.96Z" fill="white" />
</svg>
